HIERARCHY
ROOT Hips
{
  OFFSET 20.5025 89.2184 -21.1374
  CHANNELS 6 Xposition Yposition Zposition Zrotation Xrotation Yrotation
  JOINT RightUpLeg
  {
    OFFSET -9.32418 -1.57119 -0.025657
    CHANNELS 3 Zrotation Xrotation Yrotation
    JOINT RightLeg
    {
      OFFSET -0.0960642 -41.8747 0.0520458
      CHANNELS 3 Zrotation Xrotation Yrotation
      JOINT RightFoot
      {
        OFFSET -0.946809 -41.5361 -0.0790467
        CHANNELS 3 Zrotation Xrotation Yrotation
        End Site
        {
          OFFSET 0 -7.69 17.5
        }
      }
    }
  }
  JOINT LeftUpLeg
  {
    OFFSET 9.29131 -1.5975 0.016395
    CHANNELS 3 Zrotation Xrotation Yrotation
    JOINT LeftLeg
    {
      OFFSET 0.0745403 -41.866 0.0326132
      CHANNELS 3 Zrotation Xrotation Yrotation
      JOINT LeftFoot
      {
        OFFSET -0.351076 -42.0262 0.246541
        CHANNELS 3 Zrotation Xrotation Yrotation
        End Site
        {
          OFFSET 0 -7.69 17.5
        }
      }
    }
  }
  JOINT Spine
  {
    OFFSET 0.0368046 14.2997 0.0305393
    CHANNELS 3 Zrotation Xrotation Yrotation
    JOINT Spine1
    {
      OFFSET 0.0160572 9.72186 0.0245355
      CHANNELS 3 Zrotation Xrotation Yrotation
      JOINT Spine2
      {
        OFFSET 0.0170914 10.1127 0.0244287
        CHANNELS 3 Zrotation Xrotation Yrotation
        JOINT Spine3
        {
          OFFSET 0.0355733 9.71175 0.0166032
          CHANNELS 3 Zrotation Xrotation Yrotation
          JOINT Neck
          {
            OFFSET -0.0373761 10.381 0.0200737
            CHANNELS 3 Zrotation Xrotation Yrotation
            JOINT Head
            {
              OFFSET 0.0251406 9.49255 0.0511295
              CHANNELS 3 Zrotation Xrotation Yrotation
              End Site
              {
                OFFSET 0 15.95 0
              }
            }
          }
          JOINT RightShoulder
          {
            OFFSET -3.16188 6.95189 0.0539135
            CHANNELS 3 Zrotation Xrotation Yrotation
            JOINT RightArm
            {
              OFFSET -12.8775 0.0419834 0.0957705
              CHANNELS 3 Zrotation Xrotation Yrotation
              JOINT RightForeArm
              {
                OFFSET -26.3807 0.021842 -0.143268
                CHANNELS 3 Zrotation Xrotation Yrotation
                JOINT RightHand
                {
                  OFFSET -26.0283 -0.00806752 -0.000571111
                  CHANNELS 3 Zrotation Xrotation Yrotation
                  JOINT RightHandThumb1
                  {
                    OFFSET -2.48905 0.190105 3.12053
                    CHANNELS 3 Zrotation Xrotation Yrotation
                    JOINT RightHandThumb2
                    {
                      OFFSET -3.68274 0 0
                      CHANNELS 3 Zrotation Xrotation Yrotation
                      JOINT RightHandThumb3
                      {
                        OFFSET -2.55832 0 0
                        CHANNELS 3 Zrotation Xrotation Yrotation
                        End Site
                        {
                          OFFSET -2.194 0 0
                        }
                      }
                    }
                  }
                  JOINT RightInHandIndex
                  {
                    OFFSET -3.22368 0.508421 1.97842
                    CHANNELS 3 Zrotation Xrotation Yrotation
                    JOINT RightHandIndex1
                    {
                      OFFSET -5.21684 -0.091368 0.999158
                      CHANNELS 3 Zrotation Xrotation Yrotation
                      JOINT RightHandIndex2
                      {
                        OFFSET -3.61937 0 0
                        CHANNELS 3 Zrotation Xrotation Yrotation
                        JOINT RightHandIndex3
                        {
                          OFFSET -2.0521 0 0
                          CHANNELS 3 Zrotation Xrotation Yrotation
                          End Site
                          {
                            OFFSET -1.805 0 0
                          }
                        }
                      }
                    }
                  }
                  JOINT RightInHandMiddle
                  {
                    OFFSET -3.38211 0.517263 0.756737
                    CHANNELS 3 Zrotation Xrotation Yrotation
                    JOINT RightHandMiddle1
                    {
                      OFFSET -5.17411 -0.084 0.313895
                      CHANNELS 3 Zrotation Xrotation Yrotation
                      JOINT RightHandMiddle2
                      {
                        OFFSET -3.94947 0 0
                        CHANNELS 3 Zrotation Xrotation Yrotation
                        JOINT RightHandMiddle3
                        {
                          OFFSET -2.47579 0 0
                          CHANNELS 3 Zrotation Xrotation Yrotation
                          End Site
                          {
                            OFFSET -1.975 0 0
                          }
                        }
                      }
                    }
                  }
                  JOINT RightInHandRing
                  {
                    OFFSET -3.36516 0.537895 -0.128947
                    CHANNELS 3 Zrotation Xrotation Yrotation
                    JOINT RightHandRing1
                    {
                      OFFSET -4.63474 -0.022105 -0.478947
                      CHANNELS 3 Zrotation Xrotation Yrotation
                      JOINT RightHandRing2
                      {
                        OFFSET -3.44238 0 0
                        CHANNELS 3 Zrotation Xrotation Yrotation
                        JOINT RightHandRing3
                        {
                          OFFSET -2.3881 0 0
                          CHANNELS 3 Zrotation Xrotation Yrotation
                          End Site
                          {
                            OFFSET -1.857 0 0
                          }
                        }
                      }
                    }
                  }
                  JOINT RightInHandPinky
                  {
                    OFFSET -3.16105 0.469368 -1.20179
                    CHANNELS 3 Zrotation Xrotation Yrotation
                    JOINT RightHandPinky1
                    {
                      OFFSET -4.14105 -0.022105 -1.09053
                      CHANNELS 3 Zrotation Xrotation Yrotation
                      JOINT RightHandPinky2
                      {
                        OFFSET -2.75653 0 0
                        CHANNELS 3 Zrotation Xrotation Yrotation
                        JOINT RightHandPinky3
                        {
                          OFFSET -1.74189 0 0
                          CHANNELS 3 Zrotation Xrotation Yrotation
                          End Site
                          {
                            OFFSET -1.645 0 0
                          }
                        }
                      }
                    }
                  }
                }
              }
            }
          }
          JOINT LeftShoulder
          {
            OFFSET 3.22497 6.89097 -0.0161007
            CHANNELS 3 Zrotation Xrotation Yrotation
            JOINT LeftArm
            {
              OFFSET 12.8034 -0.0603944 -0.0289408
              CHANNELS 3 Zrotation Xrotation Yrotation
              JOINT LeftForeArm
              {
                OFFSET 26.5164 -0.00331163 -0.0289653
                CHANNELS 3 Zrotation Xrotation Yrotation
                JOINT LeftHand
                {
                  OFFSET 25.9929 -0.00353192 -0.0207406
                  CHANNELS 3 Zrotation Xrotation Yrotation
                  JOINT LeftHandThumb1
                  {
                    OFFSET 2.48905 0.190105 3.12053
                    CHANNELS 3 Zrotation Xrotation Yrotation
                    JOINT LeftHandThumb2
                    {
                      OFFSET 3.68274 0 0
                      CHANNELS 3 Zrotation Xrotation Yrotation
                      JOINT LeftHandThumb3
                      {
                        OFFSET 2.55832 0 0
                        CHANNELS 3 Zrotation Xrotation Yrotation
                        End Site
                        {
                          OFFSET 2.194 0 0
                        }
                      }
                    }
                  }
                  JOINT LeftInHandIndex
                  {
                    OFFSET 3.22368 0.508421 1.97842
                    CHANNELS 3 Zrotation Xrotation Yrotation
                    JOINT LeftHandIndex1
                    {
                      OFFSET 5.21684 -0.091368 0.999158
                      CHANNELS 3 Zrotation Xrotation Yrotation
                      JOINT LeftHandIndex2
                      {
                        OFFSET 3.61937 0 0
                        CHANNELS 3 Zrotation Xrotation Yrotation
                        JOINT LeftHandIndex3
                        {
                          OFFSET 2.0521 0 0
                          CHANNELS 3 Zrotation Xrotation Yrotation
                          End Site
                          {
                            OFFSET 1.805 0 0
                          }
                        }
                      }
                    }
                  }
                  JOINT LeftInHandMiddle
                  {
                    OFFSET 3.38211 0.517263 0.756737
                    CHANNELS 3 Zrotation Xrotation Yrotation
                    JOINT LeftHandMiddle1
                    {
                      OFFSET 5.17411 -0.084 0.313895
                      CHANNELS 3 Zrotation Xrotation Yrotation
                      JOINT LeftHandMiddle2
                      {
                        OFFSET 3.94947 0 0
                        CHANNELS 3 Zrotation Xrotation Yrotation
                        JOINT LeftHandMiddle3
                        {
                          OFFSET 2.47579 0 0
                          CHANNELS 3 Zrotation Xrotation Yrotation
                          End Site
                          {
                            OFFSET 1.975 0 0
                          }
                        }
                      }
                    }
                  }
                  JOINT LeftInHandRing
                  {
                    OFFSET 3.36516 0.537895 -0.128947
                    CHANNELS 3 Zrotation Xrotation Yrotation
                    JOINT LeftHandRing1
                    {
                      OFFSET 4.63474 -0.022105 -0.478947
                      CHANNELS 3 Zrotation Xrotation Yrotation
                      JOINT LeftHandRing2
                      {
                        OFFSET 3.44238 0 0
                        CHANNELS 3 Zrotation Xrotation Yrotation
                        JOINT LeftHandRing3
                        {
                          OFFSET 2.3881 0 0
                          CHANNELS 3 Zrotation Xrotation Yrotation
                          End Site
                          {
                            OFFSET 1.857 0 0
                          }
                        }
                      }
                    }
                  }
                  JOINT LeftInHandPinky
                  {
                    OFFSET 3.16105 0.469368 -1.20179
                    CHANNELS 3 Zrotation Xrotation Yrotation
                    JOINT LeftHandPinky1
                    {
                      OFFSET 4.14105 -0.022105 -1.09053
                      CHANNELS 3 Zrotation Xrotation Yrotation
                      JOINT LeftHandPinky2
                      {
                        OFFSET 2.75653 0 0
                        CHANNELS 3 Zrotation Xrotation Yrotation
                        JOINT LeftHandPinky3
                        {
                          OFFSET 1.74189 0 0
                          CHANNELS 3 Zrotation Xrotation Yrotation
                          End Site
                          {
                            OFFSET 1.645 0 0
                          }
                        }
                      }
                    }
                  }
                }
              }
            }
          }
        }
      }
    }
  }
}
MOTION
Frames:	4
Frame Time:	0.00833333
-15.1559 87.8076 -38.2969 6.24533 11.3025 -70.8305 16.671 -28.6236 21.7991 -0.324156 31.9961 0.721902 0.131712 -3.52734 23.3113 29.4673 -7.72217 23.1422 0.164933 46.7382 -1.23628 -0.19296 -4.00546 14.0584 -2.68458 0.307209 -3.07533 -5.34084 0.750986 -6.13326 -5.34084 0.750988 -6.13326 -5.34084 0.750987 -6.13326 3.32864 9.05625 15.1573 -13.7321 -14.8756 40.4681 -0.572143 -0.451582 -7.18147 38.9483 -22.5625 40.4561 -27.9589 -43.0556 91.2068 -0.0940428 10.2926 1.31547 1.98785e-16 -1.98785e-15 -6.36111e-15 -7.25317e-08 8.24093e-10 -2.87388e-05 1.39149e-15 -1.59028e-15 -0 1.98785e-16 -1.98785e-15 -6.36111e-15 -3.37934e-15 -1.59028e-15 -3.18055e-15 -3.18055e-15 -3.97569e-16 -0 -1.78906e-15 -3.18055e-15 -0 1.98785e-16 -1.98785e-15 -6.36111e-15 -3.37934e-15 -1.59028e-15 -3.18055e-15 5.88475e-05 1.85964e-09 8.19287e-09 -4.17448e-15 3.18055e-15 -1.27222e-14 1.98785e-16 -1.98785e-15 -6.36111e-15 -3.37934e-15 -1.59028e-15 -3.18055e-15 5.79944e-05 -2.33488e-08 -2.03695e-07 -2.64834e-31 1.59028e-15 9.54166e-15 1.98785e-16 -1.98785e-15 -6.36111e-15 -3.37934e-15 -1.59028e-15 -3.18055e-15 0.000198188 -4.52037e-08 -9.07583e-08 2.38542e-15 -1.19271e-15 3.18055e-15 -0.572143 -0.451582 -7.18147 -17.2665 -8.95551 -136.822 17.1728 -10.4217 -32.3642 0.182635 10.5123 -1.64522 3.18055e-15 1.59028e-15 7.95139e-15 -9.54166e-15 0 1.59028e-15 -9.54166e-15 -7.95139e-15 -6.36111e-15 3.18055e-15 1.59028e-15 7.95139e-15 -9.54166e-15 0 1.59028e-15 -0.000189233 1.31077e-08 -1.55717e-07 6.36111e-15 -1.59028e-15 -2.38542e-15 3.18055e-15 1.59028e-15 7.95139e-15 -9.54166e-15 0 1.59028e-15 -9.54166e-15 -7.95139e-15 -6.36111e-15 3.18055e-15 -3.18055e-15 1.59028e-15 3.18055e-15 1.59028e-15 7.95139e-15 -9.54166e-15 0 1.59028e-15 -9.54166e-15 -7.95139e-15 -6.36111e-15 3.18055e-15 -3.18055e-15 1.59028e-15 3.18055e-15 1.59028e-15 7.95139e-15 -9.54166e-15 0 1.59028e-15 -9.54166e-15 -7.95139e-15 -6.36111e-15 3.18055e-15 -3.18055e-15 1.59028e-15 
-15.2341 87.8092 -38.2942 6.27024 11.2872 -70.876 16.6948 -28.6116 21.7931 -0.324314 32.0077 0.722069 0.120215 -3.49198 23.3555 29.4573 -7.69079 23.0651 0.163121 46.662 -1.2346 -0.208519 -3.96277 14.2154 -2.68448 0.306542 -3.07947 -5.34312 0.755904 -6.14139 -5.34311 0.755907 -6.1414 -5.34312 0.755906 -6.14139 3.31928 8.9788 15.1758 -13.7615 -14.9009 40.5213 -0.551224 -0.471769 -7.19085 38.4495 -22.9721 40.2757 -27.9681 -43.0306 91.1563 -0.0993449 10.5368 1.34736 7.95139e-16 1.19271e-15 -9.54166e-15 -7.25317e-08 8.24095e-10 -2.87388e-05 3.97569e-16 0 -6.36111e-15 7.95139e-16 1.19271e-15 -9.54166e-15 -1.19271e-15 0 3.18055e-15 -1.98785e-15 -1.19271e-15 -0 -2.38542e-15 -3.18055e-15 -1.27222e-14 7.95139e-16 1.19271e-15 -9.54166e-15 -1.19271e-15 0 3.18055e-15 5.88475e-05 1.85964e-09 8.19287e-09 -1.19271e-15 5.96354e-15 -6.36111e-15 7.95139e-16 1.19271e-15 -9.54166e-15 -1.19271e-15 0 3.18055e-15 5.79944e-05 -2.33488e-08 -2.03695e-07 3.97569e-16 -7.95139e-16 -1.27222e-14 7.95139e-16 1.19271e-15 -9.54166e-15 -1.19271e-15 0 3.18055e-15 0.000198188 -4.52037e-08 -9.07583e-08 7.95139e-16 -7.95139e-16 -3.18055e-15 -0.551224 -0.471769 -7.19085 -17.478 -9.10805 -136.948 17.1955 -10.4458 -32.415 0.190733 10.6556 -1.66822 -1.10348e-31 1.59028e-15 3.97569e-15 -6.36111e-15 1.59028e-15 7.95139e-16 -3.18055e-15 -4.77083e-15 -6.36111e-15 -1.10348e-31 1.59028e-15 3.97569e-15 -6.36111e-15 1.59028e-15 7.95139e-16 -0.000189233 1.31077e-08 -1.55717e-07 6.36111e-15 1.59028e-15 -1.59028e-15 -1.10348e-31 1.59028e-15 3.97569e-15 -6.36111e-15 1.59028e-15 7.95139e-16 -3.18055e-15 -4.77083e-15 -6.36111e-15 3.18055e-15 3.18055e-15 -0 -1.10348e-31 1.59028e-15 3.97569e-15 -6.36111e-15 1.59028e-15 7.95139e-16 -3.18055e-15 -4.77083e-15 -6.36111e-15 3.18055e-15 3.18055e-15 -0 -1.10348e-31 1.59028e-15 3.97569e-15 -6.36111e-15 1.59028e-15 7.95139e-16 -3.18055e-15 -4.77083e-15 -6.36111e-15 3.18055e-15 3.18055e-15 -0 
-15.2874 87.8099 -38.3029 6.28929 11.2635 -70.9194 16.7167 -28.6033 21.7894 -0.324786 32.0404 0.722401 0.108163 -3.45552 23.3992 29.4341 -7.6479 22.9827 0.161025 46.5775 -1.23274 -0.220764 -3.93525 14.3876 -2.68467 0.305909 -3.08994 -5.34832 0.765217 -6.16226 -5.34833 0.765216 -6.16226 -5.34832 0.765219 -6.16226 3.33236 8.82161 15.2073 -13.7948 -14.8283 40.638 -0.490907 -0.485309 -7.21276 37.9381 -23.3077 40.1437 -27.981 -42.9898 91.0769 -0.103948 10.7495 1.37515 1.19271e-15 -1.59028e-15 -1.27222e-14 -7.25317e-08 8.24092e-10 -2.87388e-05 -1.59028e-15 1.19271e-15 3.18055e-15 1.19271e-15 -1.59028e-15 -1.27222e-14 3.97569e-16 -1.59028e-15 -3.18055e-15 -1.59028e-15 0 -0 -3.97569e-16 -1.19271e-15 -0 1.19271e-15 -1.59028e-15 -1.27222e-14 3.97569e-16 -1.59028e-15 -3.18055e-15 5.88475e-05 1.85964e-09 8.19286e-09 1.59028e-15 3.97569e-15 -6.36111e-15 1.19271e-15 -1.59028e-15 -1.27222e-14 3.97569e-16 -1.59028e-15 -3.18055e-15 5.79944e-05 -2.33488e-08 -2.03695e-07 -1.98785e-15 -3.97569e-16 -0 1.19271e-15 -1.59028e-15 -1.27222e-14 3.97569e-16 -1.59028e-15 -3.18055e-15 0.000198188 -4.52037e-08 -9.07583e-08 1.98785e-15 -3.97569e-16 -0 -0.490907 -0.485309 -7.21276 -17.715 -9.25944 -137.015 17.2047 -10.4557 -32.4355 0.198355 10.7882 -1.68949 3.18055e-15 6.36111e-15 5.56597e-15 -9.54166e-15 3.18055e-15 7.95139e-16 -6.36111e-15 -1.59028e-15 -7.15625e-15 3.18055e-15 6.36111e-15 5.56597e-15 -9.54166e-15 3.18055e-15 7.95139e-16 -0.000189233 1.31077e-08 -1.55717e-07 9.54166e-15 1.59028e-15 -3.97569e-15 3.18055e-15 6.36111e-15 5.56597e-15 -9.54166e-15 3.18055e-15 7.95139e-16 -6.36111e-15 -1.59028e-15 -7.15625e-15 3.18055e-15 -1.59028e-15 -7.95139e-16 3.18055e-15 6.36111e-15 5.56597e-15 -9.54166e-15 3.18055e-15 7.95139e-16 -6.36111e-15 -1.59028e-15 -7.15625e-15 3.18055e-15 -1.59028e-15 -7.95139e-16 3.18055e-15 6.36111e-15 5.56597e-15 -9.54166e-15 3.18055e-15 7.95139e-16 -6.36111e-15 -1.59028e-15 -7.15625e-15 3.18055e-15 -1.59028e-15 -7.95139e-16 
-15.3455 87.8108 -38.3427 6.30811 11.2394 -70.9592 16.7354 -28.5951 21.7937 -0.325189 32.0684 0.722696 0.0937307 -3.41513 23.4338 29.409 -7.60484 22.9061 0.158877 46.4919 -1.23087 -0.234588 -3.89901 14.5388 -2.68921 0.305328 -3.10086 -5.35659 0.7743 -6.18387 -5.35658 0.774298 -6.18389 -5.35658 0.774298 -6.18387 3.36991 8.67236 15.2416 -13.8385 -14.7342 40.7589 -0.430145 -0.494132 -7.2352 37.4599 -23.5922 40.0207 -27.9948 -42.9463 90.9927 -0.10737 10.9061 1.39562 -3.97569e-16 7.95139e-16 -1.27222e-14 -7.25317e-08 8.24094e-10 -2.87388e-05 -1.98785e-15 1.98785e-15 6.36111e-15 -3.97569e-16 7.95139e-16 -1.27222e-14 -3.97569e-16 -3.97569e-16 -0 -3.18055e-15 1.19271e-15 3.18055e-15 -3.97569e-16 -3.18055e-15 -0 -3.97569e-16 7.95139e-16 -1.27222e-14 -3.97569e-16 -3.97569e-16 -0 5.88475e-05 1.85964e-09 8.19287e-09 7.95139e-16 3.57812e-15 -3.18055e-15 -3.97569e-16 7.95139e-16 -1.27222e-14 -3.97569e-16 -3.97569e-16 -0 5.79944e-05 -2.33488e-08 -2.03695e-07 -3.97569e-16 -1.19271e-15 -3.18055e-15 -3.97569e-16 7.95139e-16 -1.27222e-14 -3.97569e-16 -3.97569e-16 -0 0.000198188 -4.52037e-08 -9.07583e-08 -3.97569e-16 -1.59028e-15 -3.18055e-15 -0.430145 -0.494132 -7.2352 -17.929 -9.39941 -137.053 17.2113 -10.4627 -32.4499 0.204518 10.8938 -1.70651 -1.23589e-30 1.11319e-14 6.36111e-15 -1.59028e-14 3.18055e-15 7.95139e-16 -9.54166e-15 -6.36111e-15 -8.74653e-15 -1.23589e-30 1.11319e-14 6.36111e-15 -1.59028e-14 3.18055e-15 7.95139e-16 -0.000189233 1.31077e-08 -1.55717e-07 6.36111e-15 1.59028e-15 -2.38542e-15 -1.23589e-30 1.11319e-14 6.36111e-15 -1.59028e-14 3.18055e-15 7.95139e-16 -9.54166e-15 -6.36111e-15 -8.74653e-15 -2.20695e-32 -1.59028e-15 -7.95139e-16 -1.23589e-30 1.11319e-14 6.36111e-15 -1.59028e-14 3.18055e-15 7.95139e-16 -9.54166e-15 -6.36111e-15 -8.74653e-15 -2.20695e-32 -1.59028e-15 -7.95139e-16 -1.23589e-30 1.11319e-14 6.36111e-15 -1.59028e-14 3.18055e-15 7.95139e-16 -9.54166e-15 -6.36111e-15 -8.74653e-15 -2.20695e-32 -1.59028e-15 -7.95139e-16 
